# xmcd
#
# Track frame offsets:
#	150
#	17685
#	38167
#	55818
#	73434
#	91020
#	108663
#	126829
#	140029
#	157776
#	176262
#	192056
#	208004
#
# Disc length: 3033 seconds
#
# Revision: 0
# Processed by: cddbd v1.5PL3 Copyright (c) Steve Scherf et al.
# Submitted via: EasyCDDAExtractor 4.6.9.1
#
DISCID=b00bd70d
DTITLE=Lonestar - Let's Be Us Again
DYEAR=2004
DGENRE=Country
TTITLE0=County Fair
TTITLE1=Class Reunion (That Used To Be Us)
TTITLE2=Let's Be Us Again
TTITLE3=That Gets Me
TTITLE4=Women Rule The World
TTITLE5=What I Miss The Most
TTITLE6=Let Them Be Little
TTITLE7=T.G.I.F.
TTITLE8=Summertime
TTITLE9=How
TTITLE10=Mr. Mom
TTITLE11=From There To Here (w-Randy Owen)
TTITLE12=Somebody's Someone (Dedicated To Fallen Heroes)
EXTD=
EXTT0=
EXTT1=
EXTT2=
EXTT3=
EXTT4=
EXTT5=
EXTT6=
EXTT7=
EXTT8=
EXTT9=
EXTT10=
EXTT11=
EXTT12=
PLAYORDER=
